<?xml version="1.0" ?><!DOCTYPE svg  PUBLIC '-//W3C//DTD SVG 1.1//EN'  'http://www.w3.org/Graphics/SVG/1.1/DTD/svg11.dtd'><svg enable-background="new 0 0 128 128" id="Layer_1" version="1.1" viewBox="0 0 128 128" xml:space="preserve" xmlns="http://www.w3.org/2000/svg" xmlns:xlink="http://www.w3.org/1999/xlink"><polygon fill="#3B97D3" points="95,51.36 95,104 77,104 77,79 51,79 51,104 33,104 33,51.36 29,54.39 29,108 55,108 55,83 73,83   73,108 99,108 99,54.39 "/><path d="M112.59,61.67c-0.42,0-0.85-0.13-1.21-0.41L64,25.34L16.62,61.26c-0.88,0.67-2.13,0.49-2.8-0.39  c-0.67-0.88-0.49-2.13,0.39-2.8L64,20.32l49.8,37.76c0.88,0.67,1.05,1.92,0.39,2.8C113.79,61.4,113.19,61.67,112.59,61.67z" fill="#2C3E50"/><line fill="none" stroke="#2C3E50" stroke-linecap="round" stroke-miterlimit="10" stroke-width="2" x1="43" x2="84" y1="49" y2="49"/><polygon fill="#2C3E50" points="82.41,31.77 82.41,21.75 97,21.75 97,42.83 99,44.35 99,19.75 80.41,19.75 80.41,30.25 "/></svg>